<svg xmlns="http://www.w3.org/2000/svg" xmlns:xlink="http://www.w3.org/1999/xlink" width="80.976" height="176.058" viewBox="0 0 80.976 176.058">
  <defs>
    <clipPath id="clip-path">
      <rect id="Rectangle_17522" data-name="Rectangle 17522" width="80.976" height="176.058" fill="none"/>
    </clipPath>
  </defs>
  <g id="Group_9454" data-name="Group 9454" transform="translate(0)">
    <g id="Group_9453" data-name="Group 9453" transform="translate(0)" clip-path="url(#clip-path)">
      <path id="Path_11277" data-name="Path 11277" d="M42.878,284.137c-21.819,0-39.507,2.372-39.507,5.3s17.687,5.3,39.507,5.3,39.507-2.372,39.507-5.3-17.687-5.3-39.507-5.3" transform="translate(-3.371 -118.678)" fill="#b3b1a6" fill-rule="evenodd"/>
      <path id="Path_11278" data-name="Path 11278" d="M50.455,286.737c-16.076,0-29.108,1.521-29.108,3.4s13.032,3.4,29.108,3.4,29.108-1.521,29.108-3.4-13.032-3.4-29.108-3.4" transform="translate(-11.018 -119.764)" fill="#939184" fill-rule="evenodd"/>
      <path id="Path_11279" data-name="Path 11279" d="M18.177,289.962c3.892-6.929,11.546-5.177,16.8-.135Z" transform="translate(35.411 -119.2)" fill="#000318" fill-rule="evenodd"/>
      <path id="Path_11280" data-name="Path 11280" d="M113.625,291.653c-3.5-6.929-10.377-5.177-15.1-.135Z" transform="translate(-90.022 -119.906)" fill="#000318" fill-rule="evenodd"/>
      <path id="Path_11281" data-name="Path 11281" d="M67.681,157.122l10.048,75.12-7.739,1.737L55.851,173.5l-1.938-.161-15.1,62.2-6.338-1.81L42.29,156.9Z" transform="translate(-15.664 -65.534)" fill="#1e4c99"/>
      <path id="Path_11282" data-name="Path 11282" d="M33.757,89.532,24.808,84.7l8.063-15.836c12.614-6.161,31.813-4.9,40.28,4.1l5.975,6.673c-4.63,2.764-6.954,5.227-7.96,10.089l-6.206-7.782c-1.04,9.987-.819,20.545-.09,32.143l2.229,4.688-2.487-.022-25.39-.222-2.811-.024c3.4-12.168,4.03-23.41,1.13-35.936Z" transform="translate(-12.597 -27.172)" fill="#fe5a01"/>
      <rect id="Rectangle_17521" data-name="Rectangle 17521" width="8.115" height="2.616" transform="translate(27.503 53.504)" fill="#fff"/>
      <path id="Path_11283" data-name="Path 11283" d="M33.062,101.783a24.585,24.585,0,0,0,2.719,1.66,8.954,8.954,0,0,1-3.756,1.63,15.486,15.486,0,0,1,1.037-3.29" transform="translate(26.546 -42.513)" fill="#bd0404"/>
      <path id="Path_11284" data-name="Path 11284" d="M2.638,96.466c.041-.082.087-.163.134-.245.064-.111.128-.221.2-.326s.134-.21.2-.314.14-.21.215-.314c.14-.2.3-.4.46-.6.07-.087.14-.169.21-.25.175-.2.361-.408.565-.606.064-.07.134-.14.2-.2.111-.116.233-.233.361-.344.239-.221.495-.437.757-.646.28-.227.571-.448.873-.67.023-.017.052-.035.076-.052.169-.122.338-.239.512-.355.349-.239.71-.478,1.095-.716l.087.023c.169.245.338.478.512.71,4.117,5.59,8.438,8.269,13.207,7.273l.006.006a17.661,17.661,0,0,1-17.33.029,24.584,24.584,0,0,1-2.719-1.66c.116-.256.239-.5.373-.74" transform="translate(57.343 -37.935)" fill="#e6af68"/>
      <path id="Path_11285" data-name="Path 11285" d="M3.33,46.046a13.815,13.815,0,0,1,2.145,3.061c7.7,10.449,21.951,20.316,21,28.241.632,1.229.254,2.478-.329,2.622-.224.062-.447.11-.669.157-4.968,1.039-9.453-1.911-13.718-7.982C8.423,67.389,5.215,60.723,2.015,52.553A4,4,0,0,1,0,52.141Z" transform="translate(54.169 -19.232)" fill="#f9c37d"/>
      <path id="Path_11286" data-name="Path 11286" d="M36.465,46.093l6.166-11.285a1,1,0,0,1,1.183-.414l4.8,1.732a.687.687,0,0,1,.415.991l-2.206,4.038-3.33,6.095-.63,1.152a1,1,0,0,1-1.183.414l-4.8-1.732a.688.688,0,0,1-.416-.992" transform="translate(10.677 -14.342)" fill="#ccc"/>
      <path id="Path_11287" data-name="Path 11287" d="M48.808,36.971a.192.192,0,0,1,.118.286L42.761,48.542a.41.41,0,0,1-.47.166l-4.8-1.732a.192.192,0,0,1-.119-.287L43.541,35.4a.411.411,0,0,1,.47-.166Z" transform="translate(10.274 -14.71)" fill="#1a1a1a" fill-rule="evenodd"/>
      <path id="Path_11288" data-name="Path 11288" d="M86.476,132.752l-17.1-10.822-15.61,20.4,17.1,10.823Z" transform="translate(-36.809 -50.927)" fill="#643018" fill-rule="evenodd"/>
      <path id="Path_11289" data-name="Path 11289" d="M85.962,134.083,71.136,124.7,56.894,143.313,71.719,152.7Z" transform="translate(-38.116 -52.085)" fill="#fff" fill-rule="evenodd"/>
      <path id="Path_11290" data-name="Path 11290" d="M71.738,130.753l-7.545-4.774a.442.442,0,0,0-.577.094l-1.334,1.743a.356.356,0,0,0,.1.525l7.545,4.775a.443.443,0,0,0,.578-.094l1.334-1.743a.357.357,0,0,0-.1-.525" transform="translate(-27.165 -52.59)" fill="#b3b3b3" fill-rule="evenodd"/>
      <path id="Path_11291" data-name="Path 11291" d="M68.557,128.591c-.747-.473-1.537-.639-1.856-.408l2.923,1.85c.126-.353-.319-.969-1.066-1.442" transform="translate(-27.509 -53.496)" fill="gray" fill-rule="evenodd"/>
      <path id="Path_11292" data-name="Path 11292" d="M78.244,99.795l-6.5,12.638a1.717,1.717,0,0,0,.964,2.033l17.05,13.521c4.719,6.485,10.892,6.289,14.444,1.35-.823-1.4-3.295-1.711-4.695-3.745.455-.138,1.138-.155,1.474-.278,3.235-1.179.941-1.81-3.2-2.044a12.885,12.885,0,0,0-5.6-.9L80.311,111.509l5.13-7.832Z" transform="translate(-64.958 -41.682)" fill="#f9c37d" fill-rule="evenodd"/>
      <path id="Path_11293" data-name="Path 11293" d="M58.723,56.983c.25,1.765.11,3.528.312,5.179.688,5.959,9.9,5.848,10.254,1.073V59.258a10.692,10.692,0,0,1-1.869.148c-3.881,0-6.683-.861-8.7-2.424" transform="translate(-22.508 -23.801)" fill="#f9c37d" fill-rule="evenodd"/>
      <path id="Path_11294" data-name="Path 11294" d="M59,61.9a18.286,18.286,0,0,0,8.6,1.957q.811,0,1.6-.058a3.5,3.5,0,0,0,.089-.56V59.258a10.7,10.7,0,0,1-1.869.148c-3.881,0-6.684-.86-8.7-2.424.236,1.671.124,3.34.282,4.913" transform="translate(-22.507 -23.801)" fill="#f2af68" fill-rule="evenodd"/>
      <path id="Path_11295" data-name="Path 11295" d="M48.565,28.818c.005.146,0-.006-.006-.228l1.081.7a8.344,8.344,0,0,1,2.227-7.034l17.3.169c.215,1.787.508,3.81.738,5.891,0-.037-.008-.074-.012-.11,1.075-.434,1.817.174,1.523,4.031-.078,1.268-.574,1.583-1.147,1.777,0-.038,0-.076,0-.114.012,5.926-1.566,11.023-8.182,11-8.81,0-12.067-4.423-13.119-11.491.015.1.026.2.041.3-1.9.433-2.556-.663-3.189-3.447-.209-1.483,1.328-1.955,2.749-1.442" transform="translate(-17.171 -9.297)" fill="#f9c37d"/>
      <path id="Path_11296" data-name="Path 11296" d="M81.153,22.166v-.023l.289,0,.507-.037c.784-.012,1.847-.035,2.591-.052-.037.038-.066.079-.1.118a8.343,8.343,0,0,0-2.227,7.034l-1.081-.7h0A18.9,18.9,0,0,1,79.3,22.3Z" transform="translate(-49.741 -9.213)" fill="#441900"/>
      <path id="Path_11297" data-name="Path 11297" d="M71.265,31.721a1.625,1.625,0,1,0,1.286,1.589,1.462,1.462,0,0,0-1.286-1.589" transform="translate(-32.326 -13.249)" fill="#441900" fill-rule="evenodd"/>
      <path id="Path_11298" data-name="Path 11298" d="M53.854,33.183a1.625,1.625,0,1,0,1.286,1.589,1.462,1.462,0,0,0-1.286-1.589" transform="translate(-4.776 -13.86)" fill="#441900" fill-rule="evenodd"/>
      <path id="Path_11299" data-name="Path 11299" d="M60.133,38.54a3.158,3.158,0,0,0,.621,1.6c.165.257.914,1.264.807,1.547-.1.25-1.034.3-1.25.306L59.935,42a.344.344,0,0,0,.029.684l.376-.013c.642-.022,1.681-.106,1.933-.765.372-.972-1.386-2.3-1.386-3.368V38.2c0-.285-.687-.327-.753,0Z" transform="translate(-16.079 -15.858)" fill="#de954c" fill-rule="evenodd"/>
      <path id="Path_11300" data-name="Path 11300" d="M61.736,55.5a4.019,4.019,0,0,1-2.542.044l-.225-.067c-.188-.073-.073-.465.148-.409l.225.067a3.5,3.5,0,0,0,2.223-.036l.221-.078c.24-.056.39.3.172.4Z" transform="translate(-15.37 -22.977)" fill="#de954c" fill-rule="evenodd"/>
      <path id="Path_11301" data-name="Path 11301" d="M54.152,49.344a12.174,12.174,0,0,1,9.072-.082c-1.682,3.395-6.841,2.788-9.072.082" transform="translate(-13.782 -20.226)" fill="#1a1a1a" fill-rule="evenodd"/>
      <path id="Path_11302" data-name="Path 11302" d="M56.837,51.874a12,12,0,0,1,5.577.059,5.434,5.434,0,0,1-5.577-.059" transform="translate(-14.536 -21.54)" fill="#bd0404" fill-rule="evenodd"/>
      <path id="Path_11303" data-name="Path 11303" d="M55.822,49.387l.9.6a55.368,55.368,0,0,0,5.654,0,.916.916,0,0,0,.526-.607,11.5,11.5,0,0,0-7.079.005" transform="translate(-14.432 -20.394)" fill="#fff" fill-rule="evenodd"/>
      <path id="Path_11304" data-name="Path 11304" d="M73.021,28.49a5.207,5.207,0,0,0-2.5,1.147l-.207.206c-.1.25.283.5.451.376l.207-.206a4.636,4.636,0,0,1,2.169-.977l.3-.055c.3-.068.206-.57-.121-.546Z" transform="translate(-33.582 -11.877)" fill="#441900" fill-rule="evenodd"/>
      <path id="Path_11305" data-name="Path 11305" d="M51.994,30.18a4.033,4.033,0,0,1,1.936.887l.16.159c.077.193-.22.387-.349.291l-.16-.159A3.6,3.6,0,0,0,51.9,30.6l-.232-.043c-.232-.053-.159-.441.093-.422Z" transform="translate(-3.133 -12.588)" fill="#441900" fill-rule="evenodd"/>
      <path id="Path_11306" data-name="Path 11306" d="M69.494.014c.663-.074,1.242.171,1.293.547s-.446.741-1.109.815S68.435,1.2,68.384.829,68.83.088,69.494.014" transform="translate(-29.634 0)" fill="#940f0f" fill-rule="evenodd"/>
      <path id="Path_11307" data-name="Path 11307" d="M72.091,11.7s.387-6.038-2.245-6.843a73.579,73.579,0,0,1-8.823-3.489c-.7-.47-2.051-1.073-3.057-.3s-6.5,3.824-8.165,3.891-2.151,8.491-1.626,8.454l3.216-.23a143.787,143.787,0,0,0,20.7-1.481" transform="translate(-19.07 -0.291)" fill="#fe5a01" fill-rule="evenodd"/>
      <path id="Path_11308" data-name="Path 11308" d="M72.277.717a1.9,1.9,0,0,0-1.448.348c-1.006.772-6.5,3.824-8.165,3.891s-2.151,8.49-1.626,8.453l.245-.017,2.971-.213q1.233-.018,2.4-.044c4.037-.091,7.541-.259,10.827-.542a20.586,20.586,0,0,1-.428-6.958c-1-1.052-2.335-1.879-2.864-3.019a5.6,5.6,0,0,0-1.915-1.9" transform="translate(-31.933 -0.291)" fill="#bd0404" fill-rule="evenodd"/>
      <path id="Path_11309" data-name="Path 11309" d="M56.678,19.591a21.877,21.877,0,0,0,7,2.717c-3.971,5.02-17.409,3.579-27.705-1.236a143.786,143.786,0,0,0,20.7-1.481" transform="translate(-3.658 -8.183)" fill="#bd0404" fill-rule="evenodd"/>
      <path id="Path_11310" data-name="Path 11310" d="M82.725,20.636a.832.832,0,1,0,.774.83.8.8,0,0,0-.774-.83" transform="translate(-50.246 -8.619)" fill="#fe5a01" fill-rule="evenodd"/>
    </g>
  </g>
</svg>
